HIERARCHY
ROOT Hips
{
  OFFSET 1.44925e-005 102.336 -0.101585
  CHANNELS 6 Xposition Yposition Zposition Zrotation Xrotation Yrotation
  JOINT LeftUpLeg
  {
    OFFSET 8.9458 -8.66707 0.101652
    CHANNELS 3 Zrotation Xrotation Yrotation
    JOINT LeftLeg
    {
      OFFSET 0 -44.4227 1.3727
      CHANNELS 3 Zrotation Xrotation Yrotation
      JOINT LeftFoot
      {
        OFFSET -0.253549 -42.0924 -1.46059
        CHANNELS 3 Zrotation Xrotation Yrotation
        JOINT LeftToes
        {
          OFFSET -0.04 -4.41509 8.4991
          CHANNELS 3 Zrotation Xrotation Yrotation
          End Site
          {
            OFFSET 0.08 -0.047448 9.77979
          }
        }
      }
    }
  }
  JOINT Spine
  {
    OFFSET 0 11.8905 0
    CHANNELS 3 Zrotation Xrotation Yrotation
    JOINT Spine1
    {
      OFFSET 0 25.6574 0.127663
      CHANNELS 3 Zrotation Xrotation Yrotation
      JOINT RightShoulder
      {
        OFFSET -8.99 -0.362252 -0.22
        CHANNELS 3 Zrotation Xrotation Yrotation
        JOINT RightArm
        {
          OFFSET -10.2827 -0.00338 0.322123
          CHANNELS 3 Zrotation Xrotation Yrotation
          JOINT RightForeArm
          {
            OFFSET -26.364 0.099144 -1.42434
            CHANNELS 3 Zrotation Xrotation Yrotation
            JOINT RightHand
            {
              OFFSET -22.0324 0.085362 1.02216
              CHANNELS 3 Zrotation Xrotation Yrotation
              End Site
              {
                OFFSET -13.3284 -0.6 1.50291
              }
            }
          }
        }
      }
      JOINT LeftShoulder1
      {
        OFFSET 8.99 -0.362252 -0.22
        CHANNELS 3 Zrotation Xrotation Yrotation
        JOINT LeftArm
        {
          OFFSET 10.2827 -0.00337999 0.322123
          CHANNELS 3 Zrotation Xrotation Yrotation
          JOINT LeftForeArm
          {
            OFFSET 26.2597 0.099144 -1.42434
            CHANNELS 3 Zrotation Xrotation Yrotation
            JOINT LeftHand
            {
              OFFSET 22.0902 0.085362 1.02216
              CHANNELS 3 Zrotation Xrotation Yrotation
              End Site
              {
                OFFSET 13.419 -0.6 1.50291
              }
            }
          }
        }
      }
      JOINT Head
      {
        OFFSET 0 8.73416 0.011341
        CHANNELS 3 Zrotation Xrotation Yrotation
        End Site
        {
          OFFSET -0.29 12.7742 2.51395
        }
      }
    }
  }
  JOINT RightUpLeg
  {
    OFFSET -8.9458 -8.66707 0.101652
    CHANNELS 3 Zrotation Xrotation Yrotation
    JOINT RightLeg
    {
      OFFSET 0 -44.4227 1.3727
      CHANNELS 3 Zrotation Xrotation Yrotation
      JOINT RightFoot
      {
        OFFSET 0.253549 -42.0924 -1.46059
        CHANNELS 3 Zrotation Xrotation Yrotation
        JOINT RightToes
        {
          OFFSET 0.04 -4.41509 8.4991
          CHANNELS 3 Zrotation Xrotation Yrotation
          End Site
          {
            OFFSET -0.08 -0.137448 9.77979
          }
        }
      }
    }
  }
}
MOTION
Frames:	19
Frame Time:	0.0333333
85.2428 95.3818 5.69941 -8.48441 2.97751 -91.1788 1.35914 17.1909 5.48155 1.04853 43.0466 13.0109 -14.8023 -15.032 -0.928668 -1.33387e-009 8.7523e-006 -1.47837e-008 8.18863 12.4063 -1.814 -0.1505 0.393813 -0.5647 38.0395 1.78135 0.0445908 37.4094 -26.2207 3.94903 10.99 44.1614 0.255934 -10.0619 9.4363 0.342077 -44.2172 3.49923 -3.37615 -27.7513 -10.2303 -2.2692 -4.269 34.1578 -15.3533 5.82328 9.61819 -0.917488 -1.44605 -14.1889 -3.87296 4.94091 -22.138 -4.12462 -1.04023 32.3134 -15.7209 -0.338598 -7.78546 -0.175828 0.0462048 0.000530889 0.662642 
81.7791 95.295 5.04434 -8.43909 3.61902 -90.1816 3.40035 11.5472 3.90367 1.35798 54.2706 13.622 -11.9912 -5.05212 0.289241 -1.33387e-009 8.7523e-006 -1.47837e-008 8.98865 12.6703 -2.20541 0.490427 -0.108851 -0.713406 38.0472 1.78029 0.0370789 37.6502 -26.1793 5.09657 10.6573 43.4812 1.06977 -10.1747 9.43039 0.345302 -44.2691 3.49759 -3.36525 -28.1007 -15.307 -0.0930202 -6.55109 39.4664 -11.3845 5.82328 9.61819 -0.917488 -0.889738 -14.4476 -3.93521 6.11515 -21.2828 -3.74986 -1.12031 35.228 -16.8673 -1.14964 -11.0581 -0.226016 0.0462048 0.000530889 0.662642 
78.6332 95.3369 4.48612 -8.57399 4.19227 -88.7735 4.65819 5.39713 1.6772 1.94098 64.3212 15.0547 -9.88897 0.743378 0.716041 -1.33387e-009 8.7523e-006 -1.47837e-008 10.2926 12.9523 -2.5936 0.683579 -0.109219 -0.677101 38.139 1.77873 0.0208003 37.7554 -25.522 5.90711 9.73309 40.7236 3.72125 -10.6423 9.38511 0.607984 -44.4672 3.51069 -3.3616 -27.9319 -16.7855 1.22342 -8.37223 42.6901 -8.59132 5.82328 9.61819 -0.917488 -0.459642 -14.8386 -4.7682 7.10094 -19.9342 -3.83768 -1.20268 37.0885 -18.3581 -0.705806 -13.8099 -0.250359 0.0462048 0.000530889 0.662642 
75.4964 95.7603 4.04917 -9.02286 4.39551 -88.1154 4.80779 0.0939713 0.38958 2.83019 71.6992 16.3425 -8.5128 0.182224 0.571879 -1.33387e-009 8.7523e-006 -1.47837e-008 11.4634 13.1307 -2.53524 0.0303154 0.283477 -0.196614 38.0016 1.77648 0.0251547 37.9584 -22.9808 6.92183 8.79279 36.676 6.83558 -11.1279 9.33265 0.920515 -44.7839 3.53532 -3.36286 -27.7836 -16.7764 2.21699 -9.05104 44.4633 -7.54951 5.82328 9.61819 -0.917488 -0.36389 -15.341 -5.87843 7.59703 -17.394 -4.00508 -1.23416 37.3085 -18.888 0.109627 -15.7315 -0.218099 0.0462048 0.000530889 0.662642 
72.3409 96.4027 3.67581 -9.54246 4.05599 -88.2658 4.08578 -4.52182 -0.0456084 3.84287 76.2149 16.2082 -7.33063 -3.73146 0.259454 -1.33387e-009 8.7523e-006 -1.47837e-008 11.9022 13.2673 -2.09632 -0.899359 0.598703 0.538514 37.5703 1.77132 0.0500235 38.229 -18.8671 8.21142 7.87026 33.0393 9.67941 -11.106 9.32622 1.00624 -44.9587 3.54551 -3.35657 -27.8975 -16.7029 3.6218 -8.58146 44.5719 -8.07101 5.82328 9.61819 -0.917488 -0.511389 -15.4614 -6.74895 7.45864 -14.0655 -4.35755 -1.20508 36.345 -18.378 0.554725 -17.5434 -0.189562 0.0462048 0.000530889 0.662642 
69.2463 97.0511 3.3251 -9.87574 3.5414 -88.71 2.99373 -9.00861 -0.521575 4.41445 78.1809 14.8855 -6.50524 -6.99773 0.0633078 -1.33387e-009 8.7523e-006 -1.47837e-008 12.021 13.3854 -1.59745 -1.76821 0.514465 1.26925 37.1116 1.76331 0.0705764 38.3328 -14.1942 9.49563 6.88144 29.9431 12.2817 -10.7265 9.35298 0.939378 -44.9134 3.53682 -3.34754 -28.1591 -16.2054 5.44133 -7.63113 42.7165 -9.46306 5.82328 9.61819 -0.917488 -0.699239 -14.9083 -7.28073 7.04346 -10.7285 -4.95011 -1.13069 34.8836 -17.511 0.651132 -19.1559 -0.182222 0.0462048 0.000530889 0.662642 
66.2034 97.6913 2.9954 -10.0742 3.09099 -89.1476 1.83712 -13.2469 -1.28096 4.11351 77.8145 13.9854 -6.14642 -8.90655 -0.0299494 -1.33387e-009 8.7523e-006 -1.47837e-008 12.1525 13.4748 -1.18075 -2.66143 0.155032 1.84954 36.7895 1.75448 0.0777612 38.2678 -9.80566 10.7045 5.98767 26.6805 14.6683 -10.566 9.36019 0.958516 -44.8546 3.5323 -3.3461 -28.3765 -14.9535 7.15157 -6.71084 39.9249 -11.0833 5.82328 9.61819 -0.917488 -0.907624 -14.015 -7.5773 6.60516 -7.46098 -5.42149 -0.85832 33.0738 -16.8379 0.698668 -20.2312 -0.177618 0.0462048 0.000530889 0.662642 
63.2064 98.2677 2.70075 -10.3393 2.65401 -89.5093 0.807072 -16.7579 -1.98601 3.29744 75.248 13.9658 -6.53134 -10.961 -0.14161 -1.33387e-009 8.7523e-006 -1.47837e-008 12.1476 13.5912 -0.852007 -3.51674 -0.135609 2.23524 36.5025 1.74697 0.0851942 38.2481 -6.37223 11.9095 5.29411 23.4772 16.7748 -10.7438 9.34406 1.03381 -44.9524 3.54137 -3.34865 -28.4723 -13.5602 8.35451 -5.90463 37.7694 -12.5083 5.82328 9.61819 -0.917488 -1.22976 -13.2972 -7.73055 6.1146 -4.04319 -5.48652 -0.293907 30.9948 -16.5746 0.841688 -21.1051 -0.160703 0.0462048 0.000530889 0.662642 
60.2445 98.6987 2.4324 -10.6672 2.18194 -89.92 0.048631 -19.4293 -2.31703 2.4741 70.6421 14.1197 -7.48498 -13.078 -0.295942 -1.33387e-009 8.7523e-006 -1.47837e-008 11.8646 13.7233 -0.517561 -4.2683 -0.255215 2.51985 36.2034 1.742 0.0984794 38.3279 -4.00206 13.0489 4.70222 20.9734 18.6672 -10.8701 9.34116 0.985057 -45.1371 3.55449 -3.34828 -28.4363 -12.7279 8.97547 -5.35116 36.818 -13.3765 5.82328 9.61819 -0.917488 -1.57746 -12.8985 -7.81896 5.57422 -0.530683 -5.54241 0.214521 28.7953 -16.2214 0.958063 -22.0992 -0.144919 0.0462048 0.000530889 0.662642 
57.3295 99.0147 2.15995 -10.8228 1.72201 -90.5028 -0.412181 -21.5181 -2.21574 1.83271 64.1468 14.1576 -8.29702 -13.9344 -0.392947 -1.33387e-009 8.7523e-006 -1.47837e-008 11.3613 13.7859 -0.0926637 -5.05076 -0.370728 2.80439 36.0627 1.74148 0.107662 38.3349 -2.42179 14.0714 4.19751 19.5139 20.2905 -10.7255 9.36098 0.844655 -45.2337 3.55871 -3.34231 -28.2977 -12.5901 9.14616 -5.22975 36.6817 -13.5461 5.82328 9.61819 -0.917488 -1.71461 -12.6756 -7.82579 5.08437 2.78506 -5.53823 0.524886 26.4663 -15.728 0.906488 -22.9305 -0.150423 0.0462048 0.000530889 0.662642 
54.4826 99.1815 1.87885 -10.6827 1.40035 -91.1089 -0.568151 -23.1451 -1.85673 1.41653 56.0858 14.1955 -8.70221 -13.6718 -0.397543 -1.33387e-009 8.7523e-006 -1.47837e-008 10.8134 13.7426 0.293253 -5.77425 -0.583702 3.00118 36.177 1.74395 0.106763 38.1886 -1.27689 15.0626 3.87842 18.9968 21.3809 -10.496 9.37821 0.786612 -45.2029 3.55257 -3.33698 -28.0833 -12.9793 9.04546 -5.44301 37.0132 -13.2106 5.82328 9.61819 -0.917488 -1.60873 -12.5794 -7.62569 4.75681 5.62933 -5.54572 0.724781 24.274 -15.1356 0.827525 -23.6256 -0.160634 0.0462048 0.000530889 0.662642 
51.6321 99.1199 1.61533 -10.424 1.34042 -91.5206 -0.440986 -24.0527 -1.40856 1.15705 46.9637 14.0405 -8.93232 -13.4942 -0.396792 -1.33387e-009 8.7523e-006 -1.47837e-008 10.3204 13.6159 0.502307 -6.17204 -0.739868 3.00895 36.3577 1.74921 0.103134 38.0826 -0.309226 16.0299 3.78955 18.8893 21.7739 -10.4272 9.37953 0.815408 -45.2044 3.55003 -3.32967 -27.7613 -13.6373 8.73327 -5.77621 37.7153 -12.6479 5.82328 9.61819 -0.917488 -1.49707 -12.7081 -7.22624 4.6372 8.10687 -5.72768 0.988918 22.5888 -14.5375 0.980222 -24.5781 -0.136449 0.0462048 0.000530889 0.662642 
48.7277 98.9753 1.38752 -10.2756 1.35903 -91.8909 -0.248134 -23.896 -0.911046 0.977072 37.0441 13.6771 -8.86693 -13.4184 -0.387969 -1.33387e-009 8.7523e-006 -1.47837e-008 9.70317 13.4771 0.658962 -6.36633 -0.549972 2.98298 36.3925 1.75149 0.106586 38.2478 0.405815 16.8472 3.9291 18.8278 21.4729 -10.5439 9.37181 0.832762 -45.3952 3.55938 -3.31998 -27.3083 -14.1381 8.20774 -6.12251 38.4178 -12.0881 5.82328 9.61819 -0.917488 -1.54414 -13.0924 -6.83523 4.58523 10.6879 -5.9323 1.19438 20.9948 -13.9504 1.23304 -25.4244 -0.0942854 0.0462048 0.000530889 0.662642 
45.7796 98.8465 1.21253 -10.259 1.25581 -92.4964 -0.162264 -22.7869 -0.39104 0.846758 26.9106 13.911 -8.30661 -12.6922 -0.310139 -1.33387e-009 8.7523e-006 -1.47837e-008 8.86907 13.3628 0.877252 -6.60877 0.0245012 3.08647 36.3502 1.75467 0.116314 38.6498 0.623777 17.4646 4.29325 19.1782 20.4239 -10.7037 9.35873 0.885565 -45.6886 3.57892 -3.31478 -26.8307 -14.1961 7.62662 -6.36429 38.5994 -11.7866 5.82328 9.61819 -0.917488 -1.65455 -13.5903 -6.55409 4.46976 13.4863 -5.95851 1.06052 19.2124 -13.3173 1.43592 -25.7968 -0.0592829 0.0462048 0.000530889 0.662642 
42.6733 98.5188 1.11849 -10.2641 1.15082 -93.1315 -0.129755 -21.5435 -0.184421 0.578568 18.7794 15.7441 -7.71986 -11.9129 -0.233983 -1.33387e-009 8.7523e-006 -1.47837e-008 8.06355 13.1449 1.03774 -6.7676 0.64838 3.17247 36.445 1.76064 0.122123 39.1887 -0.156678 17.8382 4.89941 20.9252 18.5395 -10.7957 9.33778 1.07376 -45.8239 3.59006 -3.3161 -26.5182 -14.0529 7.22519 -6.38319 38.3178 -11.8377 5.82328 9.61819 -0.917488 -1.67761 -13.9655 -6.26661 4.34033 16.1555 -5.99236 0.690887 17.9388 -12.6529 2.09513 -26.4128 0.0581994 0.0462048 0.000530889 0.662642 
39.274 97.8942 1.13243 -10.166 1.22028 -93.5033 -0.142112 -21.0358 -0.453287 0.0737788 15.2868 18.7954 -7.54952 -12.2729 -0.249503 -1.33387e-009 8.7523e-006 -1.47837e-008 7.5388 12.6283 1.06717 -6.74332 1.092 3.12059 36.7228 1.76844 0.116089 39.9043 -2.47722 17.712 5.80664 24.5105 15.9741 -10.8376 9.31368 1.32886 -45.6882 3.58097 -3.31876 -26.4496 -14.0581 7.04998 -6.20606 38.0724 -12.0822 5.82328 9.61819 -0.917488 -1.59673 -14.0235 -5.93566 4.20902 18.481 -6.32152 0.429087 17.6232 -11.8083 3.60106 -27.6263 0.347694 0.0462048 0.000530889 0.662642 
35.557 97.1523 1.28207 -9.89304 1.41798 -93.9194 -0.380694 -21.108 0.276498 -0.0379166 16.2519 20.472 -7.09644 -12.7363 -0.256741 -1.33387e-009 8.7523e-006 -1.47837e-008 7.35012 11.7165 1.16349 -6.76749 1.455 3.17446 37.0697 1.77417 0.0993172 40.666 -6.11128 16.856 6.99735 29.1468 13.026 -10.856 9.3024 1.4485 -45.4589 3.56764 -3.32659 -26.4974 -14.0243 7.07434 -5.88988 37.8281 -12.4821 5.82328 9.61819 -0.917488 -1.45473 -13.7421 -5.69083 3.88414 20.4345 -6.91691 0.195839 18.1635 -10.2198 5.32294 -28.6445 0.704129 0.0462048 0.000530889 0.662642 
31.5649 96.472 1.55419 -9.55756 1.37383 -94.7921 -1.10676 -21.0933 1.17535 0.35754 19.1894 21.0466 -5.10999 -10.7839 -0.100888 -1.33387e-009 8.7523e-006 -1.47837e-008 6.93996 10.5886 1.51559 -6.82595 1.79312 3.48064 37.4389 1.7779 0.0759383 41.2392 -10.6235 15.3745 8.39322 34.3795 9.70847 -10.8107 9.3138 1.34576 -45.3848 3.57888 -3.35884 -26.4378 -13.7251 7.37569 -5.51452 37.153 -13.0548 5.82328 9.61819 -0.917488 -1.27857 -13.3208 -5.55749 2.94915 22.1244 -7.39544 -0.373074 19.372 -7.82568 6.89935 -28.9345 1.02482 0.0462048 0.000530889 0.662642 
27.444 95.9178 1.87444 -9.47358 0.638206 -95.6765 -2.67486 -21.0766 1.07676 0.915632 22.9058 21.3267 -2.05751 -6.72941 0.0406493 -1.33387e-009 8.7523e-006 -1.47837e-008 5.43991 9.75959 1.93953 -6.47185 1.92704 3.69074 37.8499 1.78225 0.0493575 41.546 -15.7904 13.4306 9.92882 40.0564 5.92991 -10.7672 9.3329 1.15035 -45.4994 3.61766 -3.41621 -26.1159 -13.9088 7.80658 -5.41994 36.5832 -13.2492 5.82328 9.61819 -0.917488 -1.14549 -13.036 -5.44869 1.14045 23.6712 -6.94047 -0.95659 21.3176 -6.00741 9.67939 -28.7264 1.55195 0.0462048 0.000530889 0.662642 
